HIERARCHY
ROOT Hips
{
	OFFSET 0.00000 0.00000 0.00000
	CHANNELS 6 Xposition Yposition Zposition Yrotation Zrotation Xrotation 
	JOINT Lumbar
	{
		OFFSET 0 0 0
		CHANNELS 3 Zrotation Xrotation Yrotation
		JOINT Neck
		{
			OFFSET 0.00 0.2701 0.00
			CHANNELS 3 Zrotation Xrotation Yrotation
			End Site
			{
				OFFSET 0.00 0.1379 0.00
			}
		}
		JOINT RightShoulder
		{
			OFFSET 0.0119 0.2289 0.1181
			CHANNELS 3 Zrotation Xrotation Yrotation
			JOINT RightElbow
			{
				OFFSET 0.00 -0.1475 0.00
				CHANNELS 2 Zrotation Yrotation
				JOINT RightWrist
				{
					OFFSET 0.00 -0.1605 0.00
					CHANNELS 2 Zrotation Xrotation
					End Site
					{
						OFFSET 0.0040 -0.1068 0.0006
					}
				}
			}
		}
		JOINT LeftShoulder
		{
			OFFSET 0.0119 0.2289 -0.1181
			CHANNELS 3 Zrotation Xrotation Yrotation
			JOINT LeftElbow
			{
				OFFSET 0.00 -0.1475 0.00
				CHANNELS 2 Zrotation Yrotation
				JOINT LeftWrist
				{
					OFFSET 0.00 -0.1605 0.00
					CHANNELS 2 Zrotation Xrotation
					End Site
					{
						OFFSET 0.0040 -0.1068 -0.0006
					}
				}
			}
		}
	}
	JOINT RightHip
	{
		OFFSET 0.0316 -0.0424 0.0458
		CHANNELS 3 Zrotation Xrotation Yrotation
		JOINT RightKnee
		{
			OFFSET 0.00 -0.2438 0.00
			CHANNELS 1 Zrotation
			JOINT RightAnkle
			{
				OFFSET 0.00 -0.2449 0.00
				CHANNELS 3 Zrotation Xrotation Yrotation
				End Site
				{
					OFFSET 0.1237 -0.0542 0.0051
				}
			}
		}
	}
	JOINT LeftHip
	{
		OFFSET 0.0316 -0.0424 -0.0458
		CHANNELS 3 Zrotation Xrotation Yrotation
		JOINT LeftKnee
		{
			OFFSET 0.00 -0.2438 0.00
			CHANNELS 1 Zrotation
			JOINT LeftAnkle
			{
				OFFSET 0.00 -0.2449 0.00
				CHANNELS 3 Zrotation Xrotation Yrotation
				End Site
				{
					OFFSET 0.1237 -0.0542 -0.0051
				}
			}
		}
	}
}
MOTION
Frames: 13
Frame Time: 0.02
-0.50309 -0.11944 0.20946 18.39362 -29.17062 -3.9628 43.00261 -0.40564 9.81454 -5.69793 9.05884 -0.83079 78.43049 -22.38582 48.95508 50.76364 68.6748 18.89136 -5.81869 7.61893 26.43112 -21.29684 115.38542 -68.69609 -15.10578 0.17995 63.51351 -16.43462 10.98114 -24.61699 -10.83877 -3.54121 -2.69989 55.21869 13.43219 -1.21096 -35.19518 -8.46936 4.19982 2.94442
-0.49494 -0.11934 0.21536 18.73259 -29.20439 -3.97852 43.2143 -0.35354 9.6514 -5.99369 9.13987 -0.83079 83.46425 -22.67246 51.34823 45.04673 64.27791 20.83971 -6.21286 6.55602 25.56462 -21.23975 115.47992 -68.64189 -15.23393 -0.48022 63.76362 -16.50812 11.17835 -25.7743 -10.68089 -3.4203 -2.62207 54.9003 14.17313 -1.76476 -35.26312 -8.5217 4.22766 2.96171
-0.48592 -0.11915 0.22198 19.18228 -29.27328 -4.02979 43.48962 -0.24802 9.32797 -6.38129 9.10533 -0.83079 89.2436 -23.73532 54.92683 39.4458 60.66306 20.99701 -6.83527 5.26557 24.71546 -20.9792 115.62981 -68.4839 -15.37376 -1.33357 64.03513 -16.43135 10.97409 -27.3725 -10.40777 -3.26187 -2.51591 54.58794 15.05184 -2.23736 -35.28284 -8.58468 4.22391 2.96169
-0.47732 -0.11895 0.22831 19.58468 -29.33777 -4.05915 43.73724 -0.16142 9.06658 -6.72347 9.10697 -0.83079 94.62378 -24.43697 57.83055 33.90035 56.81316 21.91964 -7.3421 4.0852 23.87029 -20.81055 115.74232 -68.41652 -15.48673 -2.04374 64.29234 -16.42093 10.9059 -28.74615 -10.18585 -3.12458 -2.42511 54.28725 15.85401 -2.7802 -35.31454 -8.65215 4.2353 2.97052
-0.46858 -0.11894 0.23454 19.97753 -29.3531 -4.11267 43.98252 -0.09746 8.84924 -7.08737 9.17898 -0.83079 100.21585 -25.13523 61.2237 27.88139 52.34799 23.12772 -7.89349 2.8472 22.96177 -20.62777 115.91222 -68.18697 -15.68649 -2.97897 64.57071 -16.41676 11.0372 -30.24182 -9.96738 -2.97004 -2.32383 53.92342 16.71592 -3.1977 -35.38979 -8.68075 4.24407 2.97558
-0.45996 -0.11852 0.24112 20.41614 -29.47939 -4.12381 44.24617 0.02593 8.50107 -7.424 9.07474 -0.83079 105.5514 -26.04097 63.91045 22.88659 49.40799 23.27993 -8.40601 1.69969 22.19982 -20.44089 115.9702 -68.26172 -15.71072 -3.49817 64.80911 -16.36393 10.66284 -31.57794 -9.71593 -2.84278 -2.23782 53.69427 17.48463 -3.84374 -35.36164 -8.79261 4.25048 2.98421
-0.45178 -0.117 0.24857 20.94367 -29.90222 -4.01672 44.55145 0.30591 7.85124 -7.68115 8.53333 -0.83079 110.09865 -27.32037 64.37301 20.64624 50.27216 21.02243 -8.78469 0.70383 21.77447 -20.19165 115.74373 -69.21474 -15.24088 -2.77691 64.93461 -16.22177 8.90737 -32.39549 -9.3894 -2.7969 -2.19865 53.82522 17.97591 -5.23144 -35.06743 -9.13219 4.25872 3.00734
-0.44379 -0.11505 0.25633 21.51455 -30.43552 -3.8649 44.87135 0.64297 7.07237 -7.90376 7.81491 -0.83079 114.34705 -28.79115 64.09343 19.44408 52.6891 17.745 -9.11206 -0.15655 21.51079 -19.96744 115.39377 -70.4751 -14.59857 -1.6385 65.01809 -16.03456 6.67009 -33.02897 -9.03603 -2.78031 -2.1762 54.09354 18.36584 -6.83408 -34.66944 -9.5549 4.26556 3.03458
-0.43579 -0.11328 0.26391 22.072 -30.91945 -3.72821 45.18017 0.95023 6.33922 -8.12939 7.16335 -0.83079 118.67688 -30.18304 64.15482 17.7964 54.55954 14.87426 -9.44484 -0.98325 21.21372 -19.79592 115.07695 -71.58001 -14.03625 -0.72189 65.11918 -15.86303 4.70708 -33.72506 -8.70301 -2.75236 -2.14754 54.30608 18.79369 -8.27776 -34.31358 -9.93937 4.27247 3.05958
-0.42741 -0.11159 0.2717 22.60775 -31.40216 -3.61293 45.51056 1.27535 5.65335 -8.41134 6.56398 -0.83079 123.27512 -31.55812 64.23892 16.03625 55.81658 12.1654 -9.86102 -2.24389 20.74046 -19.33712 114.86536 -72.73684 -13.45552 0.32091 65.2286 -15.70682 2.49954 -34.52681 -8.33149 -2.71496 -2.11206 54.49112 19.26202 -9.97718 -33.97658 -10.32674 4.28036 3.08537
-0.41989 -0.10963 0.27909 23.19647 -31.91186 -3.44417 45.79794 1.57648 4.84247 -8.5672 5.81676 -0.83079 127.21655 -33.01509 64.08616 14.76208 58.66888 8.92141 -10.08838 -2.53589 20.6817 -19.4973 114.3967 -73.87413 -12.88703 1.20643 65.30879 -15.50953 0.68864 -35.05757 -8.03537 -2.70457 -2.09506 54.76551 19.61852 -11.19635 -33.57719 -10.72695 4.28669 3.11095
-0.41461 -0.10703 0.28534 23.92851 -32.47984 -3.11962 45.96897 1.79367 3.70228 -8.3777 4.69341 -0.83079 129.53553 -34.55205 63.42529 14.52383 65.89665 4.27326 -9.8053 -0.44145 21.64379 -21.25255 113.30641 -74.75506 -12.26124 1.52126 65.33211 -15.21381 0.12411 -34.89417 -7.95384 -2.76301 -2.12588 55.25642 19.70434 -11.03397 -33.02404 -11.14746 4.28524 3.13293
-0.4102 -0.10419 0.29115 24.70975 -33.06875 -2.74619 46.09498 1.98487 2.4451 -8.06343 3.43036 -0.83079 131.15926 -36.17965 62.54055 14.75071 74.60388 -0.83594 -9.33278 2.66876 23.02943 -23.64592 111.94472 -75.62693 -11.67498 1.67017 65.32478 -14.87799 -0.02752 -34.46065 -7.94974 -2.84765 -2.17474 55.83125 19.67793 -10.38213 -32.41391 -11.57636 4.2829 3.15486
